<?xml version="1.0" standalone="no"?>
<!DOCTYPE svg PUBLIC "-//W3C//DTD SVG 20010904//EN"
 "http://www.w3.org/TR/2001/REC-SVG-20010904/DTD/svg10.dtd">
<svg version="1.0" xmlns="http://www.w3.org/2000/svg"
 width="64.000000pt" height="64.000000pt" viewBox="0 0 64.000000 64.000000"
 preserveAspectRatio="xMidYMid meet">
<g transform="translate(0.000000,64.000000) scale(0.100000,-0.100000)"
fill="#337AB7" stroke="none">
<path d="M261 629 c-70 -14 -127 -47 -177 -102 l-47 -52 74 -5 c41 -3 84 -11
96 -18 33 -19 55 -68 55 -123 -1 -94 -53 -139 -161 -139 l-61 0 -1 138 c0 134
-1 136 -16 97 -21 -56 -20 -149 2 -215 25 -76 109 -160 185 -185 161 -54 325
16 396 169 33 72 33 180 0 252 -34 74 -87 127 -153 157 -69 29 -132 38 -192
26z m149 -236 c12 -43 25 -82 28 -87 3 -6 17 28 32 75 l26 84 47 3 47 3 0
-140 0 -141 -35 0 -34 0 -3 73 -3 72 -25 -73 c-22 -65 -27 -73 -49 -70 -19 2
-29 16 -52 78 l-29 75 3 -75 2 -75 -37 -3 -38 -3 0 140 0 141 49 0 48 0 23
-77z"/>
<path d="M120 330 c0 -73 2 -80 19 -80 11 0 27 10 35 22 33 47 10 138 -35 138
-17 0 -19 -7 -19 -80z" fill="#337AB7"/>
</g>
</svg>
